<?xml version="1.0" encoding="UTF-8"?>
<svg id="Layer_1" data-name="Layer 1" xmlns="http://www.w3.org/2000/svg" viewBox="0 0 430.6 486.04">
  <defs>
    <style>
      .cls-1 {
        fill: #f1f1f1;
        fill-rule: evenodd;
      }

      .cls-2 {
        fill: none;
        stroke: #fff;
        stroke-miterlimit: 10;
        stroke-width: 2px;
      }
    </style>
  </defs>
  <g>
    <polygon class="cls-2" points="424.73 119.91 354.94 161.86 354.79 161.91 283.59 122.47 283.58 122.32 283.44 122.38 212.23 82.89 212.23 82.74 212.13 82.84 142.3 124.79 142.2 124.84 72.37 166.79 72.27 166.84 1.01 127.4 1.01 127.26 70.84 85.31 70.94 85.35 70.94 85.21 140.78 43.25 140.88 43.35 140.87 43.2 210.71 1.25 210.81 1.35 282.01 40.79 282.16 40.88 353.37 80.37 353.52 80.42 424.73 119.91"/>
    <polygon class="cls-1" points="424.73 119.91 354.94 161.86 354.79 161.91 283.59 122.47 283.58 122.32 283.44 122.38 212.23 82.89 212.23 82.74 212.13 82.84 142.3 124.79 142.2 124.84 72.37 166.79 72.27 166.84 1.01 127.4 1.01 127.26 70.84 85.31 70.94 85.35 70.94 85.21 140.78 43.25 140.88 43.35 140.87 43.2 210.71 1.25 210.81 1.35 282.01 40.79 282.16 40.88 353.37 80.37 353.52 80.42 424.73 119.91"/>
  </g>
  <g>
    <path class="cls-2" d="M202.77,119.78l-.09-.1-65.2,41.52,1.41,81.02-.09-.05-66.61-39.22-.09-.1L6.88,244.38l2.83,161.85,66.61,39.22.09-.05v.15s66.61,39.22,66.61,39.22l.09-.1,65.2-41.52.09-.05-1.41-80.73-.09-.05.09-.1-1.41-80.73-.09-.05.09-.1-1.41-80.68-.09-.1.09-.05-1.41-80.73ZM141.71,403.93l-.09-.05-66.61-39.22-.09-.05.09-.1-1.41-80.73-.09-.05.09-.1v.15s66.61,39.22,66.61,39.22l.09-.05,1.41,80.98Z"/>
    <path class="cls-1" d="M202.77,119.78l-.09-.1-65.2,41.52,1.41,81.02-.09-.05-66.61-39.22-.09-.1L6.88,244.38l2.83,161.85,66.61,39.22.09-.05v.15s66.61,39.22,66.61,39.22l.09-.1,65.2-41.52.09-.05-1.41-80.73-.09-.05.09-.1-1.41-80.73-.09-.05.09-.1-1.41-80.68-.09-.1.09-.05-1.41-80.73ZM141.71,403.93l-.09-.05-66.61-39.22-.09-.05.09-.1-1.41-80.73-.09-.05.09-.1v.15s66.61,39.22,66.61,39.22l.09-.05,1.41,80.98Z"/>
  </g>
  <g>
    <polygon class="cls-2" points="428.18 318.03 429.59 398.71 429.46 398.81 363.55 440.34 363.41 440.39 297.51 481.92 297.37 482.02 230.06 442.82 224.41 119.35 291.73 158.55 291.87 158.6 293.28 239.33 293.14 239.43 293.28 239.48 294.69 320.21 294.55 320.26 294.69 320.36 296.1 401.04 295.96 401.14 296.1 401.19 296.1 401.04 362 359.56 362.14 359.61 360.73 278.73 428.04 317.93 428.18 318.03"/>
    <polygon class="cls-1" points="428.18 318.03 429.59 398.71 429.46 398.81 363.55 440.34 363.41 440.39 297.51 481.92 297.37 482.02 230.06 442.82 224.41 119.35 291.73 158.55 291.87 158.6 293.28 239.33 293.14 239.43 293.28 239.48 294.69 320.21 294.55 320.26 294.69 320.36 296.1 401.04 295.96 401.14 296.1 401.19 296.1 401.04 362 359.56 362.14 359.61 360.73 278.73 428.04 317.93 428.18 318.03"/>
  </g>
</svg>